<svg id="Capa_1" data-name="Capa 1" xmlns="http://www.w3.org/2000/svg" viewBox="0 0 67.29 67.29"><defs><style>.cls-1{fill:#6f63e9;}.cls-2{fill:none;}</style></defs><path class="cls-1" d="M52.47,31.82H40a4.37,4.37,0,0,1-4.36-4.36V14.94A4.37,4.37,0,0,1,40,10.58H52.47a4.37,4.37,0,0,1,4.36,4.36V27.46A4.37,4.37,0,0,1,52.47,31.82ZM40,14.79,39.8,27.46l12.67.15a.15.15,0,0,0,.15-.15V14.94Z"/><path class="cls-1" d="M27.34,31.82H14.82a4.37,4.37,0,0,1-4.36-4.36V14.94a4.37,4.37,0,0,1,4.36-4.36H27.34a4.37,4.37,0,0,1,4.36,4.36V27.46A4.37,4.37,0,0,1,27.34,31.82Zm-12.52-17-.15,12.67,12.67.15a.15.15,0,0,0,.15-.15V14.94Z"/><path class="cls-1" d="M27.34,56.71H14.82a4.37,4.37,0,0,1-4.36-4.36V39.83a4.37,4.37,0,0,1,4.36-4.36H27.34a4.37,4.37,0,0,1,4.36,4.36V52.35A4.37,4.37,0,0,1,27.34,56.71Zm-12.52-17-.15,12.67,12.67.15a.15.15,0,0,0,.15-.15V39.83Z"/><path class="cls-1" d="M46.21,56.71A10.62,10.62,0,1,1,56.83,46.09,10.63,10.63,0,0,1,46.21,56.71Zm0-17a6.41,6.41,0,1,0,6.41,6.41A6.41,6.41,0,0,0,46.21,39.68Z"/><rect class="cls-2" width="67.29" height="67.29"/></svg>